<svg width="393" height="110" viewBox="0 0 393 110" fill="none" xmlns="http://www.w3.org/2000/svg">
<path d="M94.808 34.872C91.9067 31.3307 88.3227 29.56 84.056 29.56C82.1787 29.56 80.4293 29.9013 78.808 30.584C77.2293 31.2667 75.864 32.2053 74.712 33.4C73.56 34.552 72.6427 35.9387 71.96 37.56C71.32 39.1813 71 40.9307 71 42.808C71 44.728 71.32 46.4987 71.96 48.12C72.6427 49.7413 73.56 51.1493 74.712 52.344C75.9067 53.5387 77.2933 54.4773 78.872 55.16C80.4507 55.8427 82.1573 56.184 83.992 56.184C88.0027 56.184 91.608 54.4773 94.808 51.064V65.912L93.528 66.36C91.608 67.0427 89.816 67.5333 88.152 67.832C86.488 68.1733 84.8453 68.344 83.224 68.344C79.896 68.344 76.696 67.7253 73.624 66.488C70.5947 65.208 67.9067 63.4373 65.56 61.176C63.256 58.872 61.4 56.1627 59.992 53.048C58.584 49.8907 57.88 46.456 57.88 42.744C57.88 39.032 58.5627 35.64 59.928 32.568C61.336 29.4533 63.192 26.7867 65.496 24.568C67.8427 22.3067 70.552 20.5573 73.624 19.32C76.696 18.04 79.9173 17.4 83.288 17.4C85.208 17.4 87.0853 17.6133 88.92 18.04C90.7973 18.424 92.76 19.0427 94.808 19.896V34.872ZM114.15 37.368H132.262V18.744H144.806V67H132.262V47.096H114.15V67H101.606V18.744H114.15V37.368ZM164.262 38.648L179.558 18.744H195.047L175.91 41.592L196.839 67H180.583L164.262 46.072V67H151.718V18.744H164.262V38.648ZM225.702 31.096C224.337 29.9867 222.971 29.176 221.606 28.664C220.241 28.1093 218.918 27.832 217.638 27.832C216.017 27.832 214.694 28.216 213.67 28.984C212.646 29.752 212.134 30.7547 212.134 31.992C212.134 32.8453 212.39 33.5493 212.902 34.104C213.414 34.6587 214.075 35.1493 214.886 35.576C215.739 35.96 216.678 36.3013 217.702 36.6C218.769 36.8987 219.814 37.2187 220.838 37.56C224.934 38.9253 227.921 40.76 229.798 43.064C231.718 45.3253 232.678 48.2907 232.678 51.96C232.678 54.4347 232.251 56.6747 231.398 58.68C230.587 60.6853 229.371 62.4133 227.75 63.864C226.171 65.272 224.209 66.36 221.862 67.128C219.558 67.9387 216.934 68.344 213.99 68.344C207.889 68.344 202.235 66.5307 197.03 62.904L202.406 52.792C204.283 54.456 206.139 55.6933 207.974 56.504C209.809 57.3147 211.622 57.72 213.414 57.72C215.462 57.72 216.977 57.2507 217.958 56.312C218.982 55.3733 219.494 54.3067 219.494 53.112C219.494 52.3867 219.366 51.768 219.11 51.256C218.854 50.7013 218.427 50.2107 217.83 49.784C217.233 49.3147 216.443 48.888 215.462 48.504C214.523 48.12 213.371 47.6933 212.006 47.224C210.385 46.712 208.785 46.1573 207.206 45.56C205.67 44.92 204.283 44.088 203.046 43.064C201.851 42.04 200.87 40.76 200.102 39.224C199.377 37.6453 199.014 35.6613 199.014 33.272C199.014 30.8827 199.398 28.728 200.166 26.808C200.977 24.8453 202.086 23.1813 203.494 21.816C204.945 20.408 206.694 19.32 208.742 18.552C210.833 17.784 213.158 17.4 215.718 17.4C218.107 17.4 220.603 17.7413 223.206 18.424C225.809 19.064 228.305 20.024 230.694 21.304L225.702 31.096ZM237.381 67V18.744H249.925L273.093 48.248V18.744H285.573V67H273.093L249.925 37.496V67H237.381ZM305.038 56.376H307.918C310.094 56.376 312.035 56.0347 313.742 55.352C315.448 54.6693 316.878 53.7307 318.03 52.536C319.224 51.3413 320.12 49.9333 320.718 48.312C321.358 46.648 321.678 44.8347 321.678 42.872C321.678 40.952 321.358 39.16 320.718 37.496C320.078 35.832 319.16 34.4027 317.966 33.208C316.814 32.0133 315.384 31.0747 313.678 30.392C311.971 29.7093 310.051 29.368 307.918 29.368H305.038V56.376ZM292.494 18.744H311.054C314.339 18.744 317.411 19.4053 320.27 20.728C323.171 22.0507 325.688 23.8213 327.822 26.04C329.998 28.216 331.704 30.776 332.942 33.72C334.179 36.6213 334.798 39.672 334.798 42.872C334.798 46.0293 334.179 49.08 332.942 52.024C331.747 54.9253 330.062 57.4853 327.886 59.704C325.752 61.9227 323.235 63.6933 320.333 65.016C317.475 66.3387 314.382 67 311.054 67H292.494V18.744Z" fill="black"/>
<path d="M2.21875 85.7812H5.73438V87.1875C6.41146 86.4792 6.98958 86 7.46875 85.75C7.97917 85.4896 8.61979 85.3594 9.39062 85.3594C11.1094 85.3594 12.4688 86.1094 13.4688 87.6094C14.5729 86.1094 16.0677 85.3594 17.9531 85.3594C21.3802 85.3594 23.0938 87.4375 23.0938 91.5938V101H19.5625V92.5469C19.5625 91.0885 19.3854 90.0573 19.0312 89.4531C18.6667 88.8385 18.0677 88.5312 17.2344 88.5312C16.2656 88.5312 15.5573 88.8958 15.1094 89.625C14.6719 90.3542 14.4531 91.526 14.4531 93.1406V101H10.9219V92.5938C10.9219 89.8854 10.1406 88.5312 8.57812 88.5312C7.58854 88.5312 6.86458 88.901 6.40625 89.6406C5.95833 90.3802 5.73438 91.5469 5.73438 93.1406V101H2.21875V85.7812ZM29.4469 85.7812V94.5156C29.4469 97.0365 30.4417 98.2969 32.4312 98.2969C34.4208 98.2969 35.4156 97.0365 35.4156 94.5156V85.7812H38.9312V94.5938C38.9312 95.8125 38.7802 96.8646 38.4781 97.75C38.1865 98.5417 37.6812 99.2552 36.9625 99.8906C35.775 100.922 34.2646 101.438 32.4312 101.438C30.6083 101.438 29.1031 100.922 27.9156 99.8906C27.1865 99.2552 26.6708 98.5417 26.3687 97.75C26.0771 97.0417 25.9312 95.9896 25.9312 94.5938V85.7812H29.4469ZM50.6125 88.375L47.7062 89.9219C47.2479 88.9844 46.6802 88.5156 46.0031 88.5156C45.6802 88.5156 45.4042 88.625 45.175 88.8438C44.9458 89.0521 44.8312 89.3229 44.8312 89.6562C44.8312 90.2396 45.5083 90.8177 46.8625 91.3906C48.7271 92.1927 49.9823 92.9323 50.6281 93.6094C51.274 94.2865 51.5969 95.1979 51.5969 96.3438C51.5969 97.8125 51.0552 99.0417 49.9719 100.031C48.9198 100.969 47.649 101.438 46.1594 101.438C43.6073 101.438 41.8 100.193 40.7375 97.7031L43.7375 96.3125C44.1542 97.0417 44.4719 97.5052 44.6906 97.7031C45.1177 98.099 45.6281 98.2969 46.2219 98.2969C47.4094 98.2969 48.0031 97.7552 48.0031 96.6719C48.0031 96.0469 47.5448 95.4635 46.6281 94.9219C46.274 94.7448 45.9198 94.5729 45.5656 94.4062C45.2115 94.2396 44.8521 94.0677 44.4875 93.8906C43.4667 93.3906 42.7479 92.8906 42.3312 92.3906C41.8 91.7552 41.5344 90.9375 41.5344 89.9375C41.5344 88.6146 41.9875 87.5208 42.8937 86.6562C43.8208 85.7917 44.9458 85.3594 46.2687 85.3594C48.2167 85.3594 49.6646 86.3646 50.6125 88.375ZM56.6844 85.7812V101H53.1688V85.7812H56.6844ZM52.6375 79.4531C52.6375 78.8385 52.8615 78.3073 53.3094 77.8594C53.7573 77.4115 54.2938 77.1875 54.9188 77.1875C55.5542 77.1875 56.0958 77.4115 56.5438 77.8594C56.9917 78.2969 57.2156 78.8333 57.2156 79.4688C57.2156 80.1042 56.9917 80.6458 56.5438 81.0938C56.1063 81.5417 55.5698 81.7656 54.9344 81.7656C54.299 81.7656 53.7573 81.5417 53.3094 81.0938C52.8615 80.6458 52.6375 80.099 52.6375 79.4531ZM71.3812 86.4375V91.1094C70.5792 90.1302 69.8604 89.4583 69.225 89.0938C68.6 88.7188 67.8656 88.5312 67.0219 88.5312C65.699 88.5312 64.6 88.9948 63.725 89.9219C62.85 90.849 62.4125 92.0104 62.4125 93.4062C62.4125 94.8333 62.8344 96.0052 63.6781 96.9219C64.5323 97.8385 65.6208 98.2969 66.9437 98.2969C67.7875 98.2969 68.5323 98.1146 69.1781 97.75C69.8031 97.3958 70.5375 96.7083 71.3812 95.6875V100.328C69.9542 101.068 68.5271 101.438 67.1 101.438C64.7458 101.438 62.7771 100.677 61.1937 99.1562C59.6104 97.625 58.8187 95.724 58.8187 93.4531C58.8187 91.1823 59.6208 89.2656 61.225 87.7031C62.8292 86.1406 64.7979 85.3594 67.1312 85.3594C68.6312 85.3594 70.0479 85.7188 71.3812 86.4375ZM83.3531 85.7812L87.2906 94.3281L91.2125 85.7812H95.1656L87.2594 102.047L79.4156 85.7812H83.3531ZM99.4719 85.7812V101H95.9563V85.7812H99.4719ZM95.425 79.4531C95.425 78.8385 95.649 78.3073 96.0969 77.8594C96.5448 77.4115 97.0813 77.1875 97.7063 77.1875C98.3417 77.1875 98.8833 77.4115 99.3313 77.8594C99.7792 78.2969 100.003 78.8333 100.003 79.4688C100.003 80.1042 99.7792 80.6458 99.3313 81.0938C98.8938 81.5417 98.3573 81.7656 97.7219 81.7656C97.0865 81.7656 96.5448 81.5417 96.0969 81.0938C95.649 80.6458 95.425 80.099 95.425 79.4531ZM111.169 88.375L108.262 89.9219C107.804 88.9844 107.236 88.5156 106.559 88.5156C106.236 88.5156 105.96 88.625 105.731 88.8438C105.502 89.0521 105.387 89.3229 105.387 89.6562C105.387 90.2396 106.065 90.8177 107.419 91.3906C109.283 92.1927 110.539 92.9323 111.184 93.6094C111.83 94.2865 112.153 95.1979 112.153 96.3438C112.153 97.8125 111.611 99.0417 110.528 100.031C109.476 100.969 108.205 101.438 106.716 101.438C104.164 101.438 102.356 100.193 101.294 97.7031L104.294 96.3125C104.71 97.0417 105.028 97.5052 105.247 97.7031C105.674 98.099 106.184 98.2969 106.778 98.2969C107.966 98.2969 108.559 97.7552 108.559 96.6719C108.559 96.0469 108.101 95.4635 107.184 94.9219C106.83 94.7448 106.476 94.5729 106.122 94.4062C105.768 94.2396 105.408 94.0677 105.044 93.8906C104.023 93.3906 103.304 92.8906 102.887 92.3906C102.356 91.7552 102.091 90.9375 102.091 89.9375C102.091 88.6146 102.544 87.5208 103.45 86.6562C104.377 85.7917 105.502 85.3594 106.825 85.3594C108.773 85.3594 110.221 86.3646 111.169 88.375ZM117.241 85.7812V94.5156C117.241 97.0365 118.235 98.2969 120.225 98.2969C122.215 98.2969 123.209 97.0365 123.209 94.5156V85.7812H126.725V94.5938C126.725 95.8125 126.574 96.8646 126.272 97.75C125.98 98.5417 125.475 99.2552 124.756 99.8906C123.569 100.922 122.058 101.438 120.225 101.438C118.402 101.438 116.897 100.922 115.709 99.8906C114.98 99.2552 114.465 98.5417 114.162 97.75C113.871 97.0417 113.725 95.9896 113.725 94.5938V85.7812H117.241ZM140.781 85.7812H144.312V101H140.781V99.4062C139.333 100.76 137.776 101.438 136.109 101.438C134.005 101.438 132.266 100.677 130.891 99.1562C129.526 97.6042 128.844 95.6667 128.844 93.3438C128.844 91.0625 129.526 89.1615 130.891 87.6406C132.255 86.1198 133.964 85.3594 136.016 85.3594C137.786 85.3594 139.375 86.0885 140.781 87.5469V85.7812ZM132.438 93.3438C132.438 94.8021 132.828 95.9896 133.609 96.9062C134.411 97.8333 135.422 98.2969 136.641 98.2969C137.943 98.2969 138.995 97.849 139.797 96.9531C140.599 96.026 141 94.849 141 93.4219C141 91.9948 140.599 90.8177 139.797 89.8906C138.995 88.9844 137.953 88.5312 136.672 88.5312C135.464 88.5312 134.453 88.9896 133.641 89.9062C132.839 90.8333 132.438 91.9792 132.438 93.3438ZM150.666 74.6094V101H147.15V74.6094H150.666ZM157.034 85.7812V101H153.519V85.7812H157.034ZM152.988 79.4531C152.988 78.8385 153.211 78.3073 153.659 77.8594C154.107 77.4115 154.644 77.1875 155.269 77.1875C155.904 77.1875 156.446 77.4115 156.894 77.8594C157.342 78.2969 157.566 78.8333 157.566 79.4688C157.566 80.1042 157.342 80.6458 156.894 81.0938C156.456 81.5417 155.92 81.7656 155.284 81.7656C154.649 81.7656 154.107 81.5417 153.659 81.0938C153.211 80.6458 152.988 80.099 152.988 79.4531ZM164.934 97.6875H173.981V101H157.966L167.825 89.0625H160.059V85.7812H174.778L164.934 97.6875ZM186.913 85.7812H190.444V101H186.913V99.4062C185.465 100.76 183.907 101.438 182.241 101.438C180.136 101.438 178.397 100.677 177.022 99.1562C175.657 97.6042 174.975 95.6667 174.975 93.3438C174.975 91.0625 175.657 89.1615 177.022 87.6406C178.386 86.1198 180.095 85.3594 182.147 85.3594C183.918 85.3594 185.506 86.0885 186.913 87.5469V85.7812ZM178.569 93.3438C178.569 94.8021 178.959 95.9896 179.741 96.9062C180.543 97.8333 181.553 98.2969 182.772 98.2969C184.074 98.2969 185.126 97.849 185.928 96.9531C186.73 96.026 187.131 94.849 187.131 93.4219C187.131 91.9948 186.73 90.8177 185.928 89.8906C185.126 88.9844 184.084 88.5312 182.803 88.5312C181.595 88.5312 180.584 88.9896 179.772 89.9062C178.97 90.8333 178.569 91.9792 178.569 93.3438ZM196.906 89.0625V101H193.391V89.0625H191.891V85.7812H193.391V80.2031H196.906V85.7812H199.641V89.0625H196.906ZM203.947 85.7812V101H200.431V85.7812H203.947ZM199.9 79.4531C199.9 78.8385 200.124 78.3073 200.572 77.8594C201.02 77.4115 201.556 77.1875 202.181 77.1875C202.817 77.1875 203.358 77.4115 203.806 77.8594C204.254 78.2969 204.478 78.8333 204.478 79.4688C204.478 80.1042 204.254 80.6458 203.806 81.0938C203.369 81.5417 202.832 81.7656 202.197 81.7656C201.561 81.7656 201.02 81.5417 200.572 81.0938C200.124 80.6458 199.9 80.099 199.9 79.4531ZM206.081 93.2812C206.081 91.0833 206.868 89.2135 208.441 87.6719C210.014 86.1302 211.93 85.3594 214.191 85.3594C216.461 85.3594 218.389 86.1354 219.972 87.6875C221.534 89.2396 222.316 91.1458 222.316 93.4062C222.316 95.6875 221.529 97.599 219.956 99.1406C218.373 100.672 216.43 101.438 214.128 101.438C211.847 101.438 209.935 100.656 208.394 99.0938C206.852 97.5521 206.081 95.6146 206.081 93.2812ZM209.675 93.3438C209.675 94.8646 210.081 96.0677 210.894 96.9531C211.727 97.849 212.826 98.2969 214.191 98.2969C215.566 98.2969 216.665 97.8542 217.488 96.9688C218.31 96.0833 218.722 94.901 218.722 93.4219C218.722 91.9427 218.31 90.7604 217.488 89.875C216.654 88.9792 215.555 88.5312 214.191 88.5312C212.847 88.5312 211.758 88.9792 210.925 89.875C210.092 90.7708 209.675 91.9271 209.675 93.3438ZM224.45 85.7812H227.981V87.1875C229.21 85.9688 230.596 85.3594 232.137 85.3594C233.908 85.3594 235.289 85.9167 236.278 87.0312C237.132 87.9792 237.559 89.526 237.559 91.6719V101H234.028V92.5C234.028 91 233.82 89.9635 233.403 89.3906C232.997 88.8073 232.257 88.5156 231.184 88.5156C230.018 88.5156 229.19 88.901 228.7 89.6719C228.221 90.4323 227.981 91.7604 227.981 93.6562V101H224.45V85.7812ZM248.688 85.7812H252.203V87.1875C252.88 86.4792 253.458 86 253.938 85.75C254.448 85.4896 255.089 85.3594 255.859 85.3594C257.578 85.3594 258.938 86.1094 259.938 87.6094C261.042 86.1094 262.536 85.3594 264.422 85.3594C267.849 85.3594 269.562 87.4375 269.562 91.5938V101H266.031V92.5469C266.031 91.0885 265.854 90.0573 265.5 89.4531C265.135 88.8385 264.536 88.5312 263.703 88.5312C262.734 88.5312 262.026 88.8958 261.578 89.625C261.141 90.3542 260.922 91.526 260.922 93.1406V101H257.391V92.5938C257.391 89.8854 256.609 88.5312 255.047 88.5312C254.057 88.5312 253.333 88.901 252.875 89.6406C252.427 90.3802 252.203 91.5469 252.203 93.1406V101H248.688V85.7812ZM283.619 85.7812H287.15V101H283.619V99.4062C282.171 100.76 280.614 101.438 278.947 101.438C276.843 101.438 275.103 100.677 273.728 99.1562C272.364 97.6042 271.681 95.6667 271.681 93.3438C271.681 91.0625 272.364 89.1615 273.728 87.6406C275.093 86.1198 276.801 85.3594 278.853 85.3594C280.624 85.3594 282.212 86.0885 283.619 87.5469V85.7812ZM275.275 93.3438C275.275 94.8021 275.666 95.9896 276.447 96.9062C277.249 97.8333 278.259 98.2969 279.478 98.2969C280.78 98.2969 281.832 97.849 282.634 96.9531C283.436 96.026 283.837 94.849 283.837 93.4219C283.837 91.9948 283.436 90.8177 282.634 89.8906C281.832 88.9844 280.791 88.5312 279.509 88.5312C278.301 88.5312 277.291 88.9896 276.478 89.9062C275.676 90.8333 275.275 91.9792 275.275 93.3438ZM301.206 74.6094H304.737V101H301.206V99.4062C299.821 100.76 298.253 101.438 296.503 101.438C294.42 101.438 292.691 100.677 291.316 99.1562C289.951 97.6042 289.269 95.6667 289.269 93.3438C289.269 91.0729 289.951 89.1771 291.316 87.6562C292.67 86.125 294.373 85.3594 296.425 85.3594C298.206 85.3594 299.8 86.0885 301.206 87.5469V74.6094ZM292.862 93.3438C292.862 94.8021 293.253 95.9896 294.034 96.9062C294.836 97.8333 295.847 98.2969 297.066 98.2969C298.368 98.2969 299.42 97.849 300.222 96.9531C301.024 96.026 301.425 94.849 301.425 93.4219C301.425 91.9948 301.024 90.8177 300.222 89.8906C299.42 88.9844 298.378 88.5312 297.097 88.5312C295.889 88.5312 294.878 88.9896 294.066 89.9062C293.264 90.8333 292.862 91.9792 292.862 93.3438ZM321.434 94.2188H310.528C310.622 95.4688 311.028 96.4635 311.747 97.2031C312.466 97.9323 313.388 98.2969 314.513 98.2969C315.388 98.2969 316.111 98.0885 316.684 97.6719C317.247 97.2552 317.888 96.4844 318.606 95.3594L321.575 97.0156C321.117 97.7969 320.632 98.4688 320.122 99.0312C319.611 99.5833 319.065 100.042 318.481 100.406C317.898 100.76 317.268 101.021 316.591 101.188C315.914 101.354 315.179 101.438 314.388 101.438C312.117 101.438 310.294 100.708 308.919 99.25C307.544 97.7812 306.856 95.8333 306.856 93.4062C306.856 91 307.523 89.0521 308.856 87.5625C310.2 86.0938 311.981 85.3594 314.2 85.3594C316.44 85.3594 318.21 86.0729 319.513 87.5C320.804 88.9167 321.45 90.8802 321.45 93.3906L321.434 94.2188ZM317.825 91.3438C317.335 89.4688 316.153 88.5312 314.278 88.5312C313.851 88.5312 313.45 88.599 313.075 88.7344C312.7 88.8594 312.356 89.0469 312.044 89.2969C311.742 89.5365 311.481 89.8281 311.263 90.1719C311.044 90.5156 310.877 90.9062 310.763 91.3438H317.825ZM345.828 94.2188H334.922C335.016 95.4688 335.422 96.4635 336.141 97.2031C336.859 97.9323 337.781 98.2969 338.906 98.2969C339.781 98.2969 340.505 98.0885 341.078 97.6719C341.641 97.2552 342.281 96.4844 343 95.3594L345.969 97.0156C345.51 97.7969 345.026 98.4688 344.516 99.0312C344.005 99.5833 343.458 100.042 342.875 100.406C342.292 100.76 341.661 101.021 340.984 101.188C340.307 101.354 339.573 101.438 338.781 101.438C336.51 101.438 334.688 100.708 333.312 99.25C331.938 97.7812 331.25 95.8333 331.25 93.4062C331.25 91 331.917 89.0521 333.25 87.5625C334.594 86.0938 336.375 85.3594 338.594 85.3594C340.833 85.3594 342.604 86.0729 343.906 87.5C345.198 88.9167 345.844 90.8802 345.844 93.3906L345.828 94.2188ZM342.219 91.3438C341.729 89.4688 340.547 88.5312 338.672 88.5312C338.245 88.5312 337.844 88.599 337.469 88.7344C337.094 88.8594 336.75 89.0469 336.438 89.2969C336.135 89.5365 335.875 89.8281 335.656 90.1719C335.438 90.5156 335.271 90.9062 335.156 91.3438H342.219ZM359.306 85.7812H362.837V101H359.306V99.4062C357.858 100.76 356.301 101.438 354.634 101.438C352.53 101.438 350.791 100.677 349.416 99.1562C348.051 97.6042 347.369 95.6667 347.369 93.3438C347.369 91.0625 348.051 89.1615 349.416 87.6406C350.78 86.1198 352.489 85.3594 354.541 85.3594C356.311 85.3594 357.9 86.0885 359.306 87.5469V85.7812ZM350.962 93.3438C350.962 94.8021 351.353 95.9896 352.134 96.9062C352.936 97.8333 353.947 98.2969 355.166 98.2969C356.468 98.2969 357.52 97.849 358.322 96.9531C359.124 96.026 359.525 94.849 359.525 93.4219C359.525 91.9948 359.124 90.8177 358.322 89.8906C357.52 88.9844 356.478 88.5312 355.197 88.5312C353.989 88.5312 352.978 88.9896 352.166 89.9062C351.364 90.8333 350.962 91.9792 350.962 93.3438ZM374.519 88.375L371.612 89.9219C371.154 88.9844 370.586 88.5156 369.909 88.5156C369.586 88.5156 369.31 88.625 369.081 88.8438C368.852 89.0521 368.737 89.3229 368.737 89.6562C368.737 90.2396 369.415 90.8177 370.769 91.3906C372.633 92.1927 373.889 92.9323 374.534 93.6094C375.18 94.2865 375.503 95.1979 375.503 96.3438C375.503 97.8125 374.961 99.0417 373.878 100.031C372.826 100.969 371.555 101.438 370.066 101.438C367.514 101.438 365.706 100.193 364.644 97.7031L367.644 96.3125C368.06 97.0417 368.378 97.5052 368.597 97.7031C369.024 98.099 369.534 98.2969 370.128 98.2969C371.316 98.2969 371.909 97.7552 371.909 96.6719C371.909 96.0469 371.451 95.4635 370.534 94.9219C370.18 94.7448 369.826 94.5729 369.472 94.4062C369.118 94.2396 368.758 94.0677 368.394 93.8906C367.373 93.3906 366.654 92.8906 366.237 92.3906C365.706 91.7552 365.441 90.9375 365.441 89.9375C365.441 88.6146 365.894 87.5208 366.8 86.6562C367.727 85.7917 368.852 85.3594 370.175 85.3594C372.123 85.3594 373.571 86.3646 374.519 88.375ZM381.872 98.1719L375.028 85.7812H379.106L383.763 94.5312L388.106 85.7812H392.075L379.95 109.281H375.934L381.872 98.1719Z" fill="black"/>
</svg>
